<mxfile host="app.diagrams.net" modified="2023-07-04T02:51:38.117Z" agent="Mozilla/5.0 (Windows NT 10.0; Win64; x64) AppleWebKit/537.36 (KHTML, like Gecko) Chrome/114.0.0.0 Safari/537.36" etag="7JCcoc3HERzZkOt-NMYQ" version="21.5.2" type="device">
  <diagram name="Page-1" id="eACAAB5VlqDlFBLaq8OR">
    <mxGraphModel dx="2317" dy="753" grid="1" gridSize="10" guides="1" tooltips="1" connect="1" arrows="1" fold="1" page="1" pageScale="1" pageWidth="850" pageHeight="1100" math="0" shadow="0">
      <root>
        <mxCell id="0" />
        <mxCell id="1" parent="0" />
        <mxCell id="wh3lizO6mJgLRZ5rAwL1-3" value="" style="edgeStyle=orthogonalEdgeStyle;rounded=0;orthogonalLoop=1;jettySize=auto;html=1;" edge="1" parent="1" source="wh3lizO6mJgLRZ5rAwL1-1" target="wh3lizO6mJgLRZ5rAwL1-2">
          <mxGeometry relative="1" as="geometry" />
        </mxCell>
        <mxCell id="wh3lizO6mJgLRZ5rAwL1-1" value="&lt;p align=&quot;center&quot; class=&quot;MsoNormal&quot;&gt;&lt;font face=&quot;Times New Roman&quot; style=&quot;font-size: 18px;&quot;&gt;Mengindentifikasi Permasalahan&lt;/font&gt;&lt;/p&gt;" style="rounded=0;whiteSpace=wrap;html=1;strokeWidth=2;" vertex="1" parent="1">
          <mxGeometry x="-160" y="80" width="280" height="60" as="geometry" />
        </mxCell>
        <mxCell id="wh3lizO6mJgLRZ5rAwL1-5" value="" style="edgeStyle=orthogonalEdgeStyle;rounded=0;orthogonalLoop=1;jettySize=auto;html=1;" edge="1" parent="1" source="wh3lizO6mJgLRZ5rAwL1-2" target="wh3lizO6mJgLRZ5rAwL1-4">
          <mxGeometry relative="1" as="geometry" />
        </mxCell>
        <mxCell id="wh3lizO6mJgLRZ5rAwL1-2" value="&lt;p align=&quot;center&quot; class=&quot;MsoNormal&quot;&gt;&lt;font face=&quot;Times New Roman&quot; style=&quot;font-size: 18px;&quot;&gt;Studi Literatur&lt;/font&gt;&lt;/p&gt;" style="rounded=0;whiteSpace=wrap;html=1;strokeWidth=2;" vertex="1" parent="1">
          <mxGeometry x="200" y="80" width="280" height="60" as="geometry" />
        </mxCell>
        <mxCell id="wh3lizO6mJgLRZ5rAwL1-8" value="" style="edgeStyle=orthogonalEdgeStyle;rounded=0;orthogonalLoop=1;jettySize=auto;html=1;" edge="1" parent="1" source="wh3lizO6mJgLRZ5rAwL1-4" target="wh3lizO6mJgLRZ5rAwL1-7">
          <mxGeometry relative="1" as="geometry" />
        </mxCell>
        <mxCell id="wh3lizO6mJgLRZ5rAwL1-4" value="&lt;p align=&quot;center&quot; class=&quot;MsoNormal&quot;&gt;&lt;font style=&quot;font-size: 18px;&quot; face=&quot;Times New Roman&quot;&gt;Perancangan Sistem&lt;/font&gt;&lt;/p&gt;" style="rounded=0;whiteSpace=wrap;html=1;strokeWidth=2;" vertex="1" parent="1">
          <mxGeometry x="560" y="80" width="280" height="60" as="geometry" />
        </mxCell>
        <mxCell id="wh3lizO6mJgLRZ5rAwL1-15" value="" style="group" vertex="1" connectable="0" parent="1">
          <mxGeometry x="-160" y="280" width="1000" height="60" as="geometry" />
        </mxCell>
        <mxCell id="wh3lizO6mJgLRZ5rAwL1-7" value="&lt;p align=&quot;center&quot; class=&quot;MsoNormal&quot;&gt;&lt;font face=&quot;Times New Roman&quot; style=&quot;font-size: 18px;&quot;&gt;Pengujian Sistem&lt;/font&gt;&lt;/p&gt;" style="rounded=0;whiteSpace=wrap;html=1;strokeWidth=2;" vertex="1" parent="wh3lizO6mJgLRZ5rAwL1-15">
          <mxGeometry x="720" width="280" height="60" as="geometry" />
        </mxCell>
        <mxCell id="wh3lizO6mJgLRZ5rAwL1-9" value="&lt;p align=&quot;center&quot; class=&quot;MsoNormal&quot;&gt;&lt;font style=&quot;font-size: 18px;&quot; face=&quot;Times New Roman&quot;&gt;Implementasi dan Pengembangan Sistem&lt;/font&gt;&lt;/p&gt;" style="rounded=0;whiteSpace=wrap;html=1;strokeWidth=2;" vertex="1" parent="wh3lizO6mJgLRZ5rAwL1-15">
          <mxGeometry x="360" width="280" height="60" as="geometry" />
        </mxCell>
        <mxCell id="wh3lizO6mJgLRZ5rAwL1-11" value="&lt;p align=&quot;center&quot; class=&quot;MsoNormal&quot;&gt;&lt;font style=&quot;font-size: 18px;&quot;&gt;Pemeliharaan&lt;/font&gt;&lt;/p&gt;" style="rounded=0;whiteSpace=wrap;html=1;strokeWidth=2;" vertex="1" parent="wh3lizO6mJgLRZ5rAwL1-15">
          <mxGeometry width="280" height="60" as="geometry" />
        </mxCell>
        <mxCell id="wh3lizO6mJgLRZ5rAwL1-10" value="" style="edgeStyle=orthogonalEdgeStyle;rounded=0;orthogonalLoop=1;jettySize=auto;html=1;" edge="1" parent="wh3lizO6mJgLRZ5rAwL1-15" source="wh3lizO6mJgLRZ5rAwL1-7" target="wh3lizO6mJgLRZ5rAwL1-9">
          <mxGeometry relative="1" as="geometry" />
        </mxCell>
        <mxCell id="wh3lizO6mJgLRZ5rAwL1-12" value="" style="edgeStyle=orthogonalEdgeStyle;rounded=0;orthogonalLoop=1;jettySize=auto;html=1;" edge="1" parent="wh3lizO6mJgLRZ5rAwL1-15" source="wh3lizO6mJgLRZ5rAwL1-9" target="wh3lizO6mJgLRZ5rAwL1-11">
          <mxGeometry relative="1" as="geometry" />
        </mxCell>
      </root>
    </mxGraphModel>
  </diagram>
</mxfile>
